<?xml version="1.0" encoding="utf-8"?>
<!-- Generator: Adobe Illustrator 23.0.5, SVG Export Plug-In . SVG Version: 6.00 Build 0)  -->
<svg version="1.1" id="Layer_1" xmlns="http://www.w3.org/2000/svg" xmlns:xlink="http://www.w3.org/1999/xlink" x="0px" y="0px"
	 viewBox="0 0 96.55 24" style="enable-background:new 0 0 96.55 24;" xml:space="preserve">
<style type="text/css">
	.st0{fill:#38A4DA;}
	.st1{fill:#FFFFFF;}
	.st2{fill:#39A4DA;}
	.st3{fill:#D5EFF8;}
	.st4{fill:#D9F1F9;}
	.st5{fill:#B7DFF2;}
	.st6{fill:#9ED3ED;}
	.st7{fill:#3AA4DB;}
</style>
<path class="st0" d="M23.95,12.06c0,3.38,0,6.76,0,10.14c0,1.12-0.66,1.77-1.79,1.77c-6.8,0-13.6,0-20.4,0
	C0.67,23.97,0,23.31,0,22.22C0,15.41,0,8.59,0,1.77c0-1.09,0.67-1.75,1.76-1.75c6.82,0,13.63,0,20.45,0c1.06,0,1.73,0.67,1.73,1.72
	C23.95,5.18,23.95,8.62,23.95,12.06z M11.53,20.76C11.53,20.76,11.53,20.76,11.53,20.76c0.03,0.03,0.07,0.07,0.11,0.11l0,0
	c0.06,0.04,0.11,0.08,0.17,0.11c0.02,0.02,0.03,0.03,0.05,0.05c0.04,0.06,0.08,0.11,0.11,0.17l0,0c0.19,0.15,0.37,0.3,0.56,0.45
	c0,0,0,0,0,0c0.04,0.04,0.08,0.08,0.11,0.12l0,0c0.16,0.11,0.32,0.23,0.48,0.34c-0.1,0.46,0.27,0.2,0.37,0.2
	c2.78,0.02,5.57,0.01,8.35,0.01c0.14,0,0.28-0.03,0.45-0.04c0-2.38-0.01-4.72,0.01-7.05c0-0.4-0.13-0.65-0.44-0.88
	c-0.45-0.34-0.87-0.72-1.32-1.1c0.17-0.19,0.29-0.32,0.42-0.45c0.63-0.5,1.24-1,1.36-1.95c-0.51,0.63-0.95,1.18-1.39,1.74
	c-0.6,0.48-1.29,0.89-1.77,1.47c-1.21,1.47-2.33,3.01-3.49,4.52c-0.13,0.16-0.31,0.28-0.47,0.43c-0.28-0.22-0.56-0.44-0.84-0.66
	c-0.09-0.08-0.19-0.16-0.28-0.24l0,0c-0.35-0.45-0.07-0.89,0-1.34l-0.01,0.01c0.08-0.04,0.15-0.08,0.23-0.11c0,0,0,0,0,0
	c0.19-0.07,0.37-0.14,0.56-0.21c0.77-0.3,0.89-0.7,0.41-1.35c0.32-0.37,0.66-0.74,0.96-1.13c0.1-0.13,0.19-0.35,0.16-0.49
	c-0.23-0.91-0.28-1.82-0.22-2.76c0.04-0.62-0.09-1.25-0.15-1.88c0.12,0.05,0.24,0.09,0.36,0.14c0.05,0.16,0.07,0.33,0.15,0.47
	c0.3,0.57,0.72,1.08,1.39,1.09c0.52,0.01,0.85-0.43,1.06-0.9c0.41-0.39,0.81-0.8,1.23-1.18c0.25-0.23,0.4-0.13,0.52,0.17
	c0.07,0.18,0.23,0.33,0.36,0.48c0.15,0.18,0.32,0.34,0.47,0.52c0.21,0.25,0.42,0.5,0.7,0.82c0-3,0-5.86,0-8.7
	c-0.06-0.03-0.09-0.05-0.12-0.05c-2.23,0-4.46-0.01-6.7,0c-0.17,0-0.37,0.14-0.49,0.27c-0.4,0.45-0.76,0.95-1.17,1.4
	c-0.09,0.1-0.31,0.07-0.47,0.1c-0.63-0.55-1.26-1.11-1.89-1.66c-0.15-0.04-0.3-0.11-0.45-0.11C8,1.69,5.03,1.69,2.05,1.69
	c-0.12,0-0.24,0.03-0.39,0.05c0,2.3-0.01,4.57,0.01,6.84C1.68,8.75,1.85,8.97,2,9.1c0.54,0.47,1.1,0.92,1.66,1.38
	c0.18,0.15,0.36,0.29,0.12,0.53c-0.51,0.59-1.03,1.18-1.54,1.77c-0.18-0.03-0.36-0.07-0.54-0.1c0,3.19,0,6.39,0,9.63
	c0.21,0,0.39,0,0.57,0c2.14,0,4.28-0.01,6.42,0.01c0.51,0.01,0.84-0.11,1.13-0.56c0.31-0.49,0.75-0.9,1.13-1.34
	c0.07,0,0.14,0,0.21,0.01c0.05,0.04,0.11,0.08,0.16,0.12l0,0c0.04,0.04,0.08,0.08,0.11,0.11l0,0
	C11.46,20.68,11.49,20.72,11.53,20.76z"/>
<path class="st1" d="M50.88,15.34c0,0.74-0.02,1.36,0.01,1.98c0.02,0.57,0.56,0.33,0.87,0.5c0,0.14,0,0.3,0,0.49
	c-1.09,0-2.17,0-3.28,0c0-0.17,0-0.33,0-0.53c0.68,0.08,0.77-0.3,0.76-0.87c-0.03-1.61-0.03-3.21,0-4.82
	c0.01-0.55-0.14-0.86-0.76-0.84c0-0.19,0-0.36,0-0.59c0.72-0.07,1.45-0.15,2.21-0.22c0.06,0.33,0.11,0.61,0.18,0.97
	c0.56-0.55,1.12-0.95,1.89-0.95c1.27,0,2.04,0.55,2.36,1.8c0.22,0.87,0.22,1.75-0.12,2.6c-0.66,1.65-2.64,2.04-3.87,0.76
	C51.07,15.54,51.01,15.48,50.88,15.34z M50.73,13.32c0.04,0.02,0.09,0.03,0.13,0.05c-0.02,0.66,0.06,1.29,0.55,1.79
	c0.55,0.57,1.28,0.5,1.64-0.21c0.51-1,0.53-2.06,0.05-3.07c-0.38-0.79-1.29-0.89-1.77-0.16C51.02,12.18,50.92,12.78,50.73,13.32z"/>
<path class="st1" d="M32.97,15.57c0.95-0.06,0.96-0.07,0.96-1.02c0-1.79,0-3.58,0-5.37c0-0.91-0.08-1-1-1.08c0-0.16,0-0.32,0-0.55
	c0.82-0.07,1.66-0.15,2.53-0.23c0,1.43,0,2.8,0,4.29c0.24-0.23,0.4-0.38,0.56-0.54c0.57-0.56,1.27-0.72,2.04-0.61
	c0.73,0.1,1.28,0.82,1.3,1.7c0.02,0.85,0,1.7,0.01,2.55c0,0.74,0.06,0.8,0.85,0.86c0.01,0.15,0.02,0.31,0.04,0.51
	c-1.1,0-2.18,0-3.3,0c0-0.15,0-0.3,0-0.5c0.05-0.01,0.11-0.03,0.18-0.03c0.48,0.02,0.7-0.19,0.69-0.7c-0.03-0.74,0-1.48-0.01-2.22
	c-0.01-0.63-0.26-0.99-0.76-1.14c-0.46-0.13-1,0.08-1.25,0.57c-0.17,0.33-0.26,0.72-0.3,1.1c-0.05,0.49-0.01,1-0.01,1.49
	c0,0.77,0.07,0.84,0.86,0.9c0.01,0.16,0.02,0.32,0.03,0.51c-1.14,0-2.26,0-3.41,0C32.97,15.92,32.97,15.77,32.97,15.57z"/>
<path class="st1" d="M76.45,15.6c0,0.15,0,0.31,0,0.49c-1.09,0-2.16,0-3.26,0c0-0.16,0-0.34,0-0.51c0.78-0.09,0.86-0.16,0.85-0.97
	c0-0.72-0.01-1.44-0.04-2.16c-0.02-0.51-0.28-0.89-0.81-0.97c-0.52-0.08-0.96,0.15-1.21,0.6c-0.14,0.26-0.22,0.59-0.24,0.89
	c-0.04,0.57-0.02,1.14-0.02,1.72c0,0.78,0.05,0.83,0.87,0.89c0.01,0.16,0.02,0.32,0.03,0.51c-1.14,0-2.26,0-3.42,0
	c-0.01-0.15-0.01-0.3-0.02-0.47c0.06-0.02,0.11-0.06,0.15-0.06c0.72-0.04,0.78-0.1,0.78-0.82c0-0.85,0-1.7,0-2.55
	c0-0.79-0.07-0.87-0.9-0.97c-0.01-0.15-0.01-0.31-0.03-0.55c0.76-0.08,1.5-0.16,2.31-0.24c0.07,0.4,0.14,0.77,0.24,1.32
	c0.24-0.3,0.37-0.52,0.56-0.69c0.65-0.59,1.42-0.8,2.24-0.47c0.84,0.33,1.03,1.09,1.05,1.9c0.02,0.7,0,1.4,0.01,2.1
	C75.6,15.46,75.6,15.46,76.45,15.6z"/>
<path class="st1" d="M63.33,10.42c0,1.21,0,2.33,0,3.45c0,0.94,0.26,1.36,0.87,1.44c0.61,0.08,1.22-0.39,1.33-1.2
	c0.11-0.78,0.12-1.58,0.04-2.37c-0.02-0.24-0.47-0.44-0.72-0.65c-0.04,0.04-0.08,0.08-0.12,0.11c0-0.16,0-0.32,0-0.55
	c0.79-0.07,1.59-0.15,2.45-0.23c0,1.4,0,2.74,0,4.08c0,0.84,0.07,0.93,0.89,1.09c0,0.16,0,0.32,0,0.52c-0.67,0-1.31,0.02-1.95-0.02
	c-0.13-0.01-0.29-0.2-0.37-0.34c-0.08-0.15-0.07-0.35-0.11-0.59c-0.25,0.24-0.45,0.45-0.67,0.64c-0.66,0.54-1.43,0.73-2.22,0.39
	c-0.79-0.34-0.98-1.09-1-1.89c-0.01-0.68,0-1.37,0-2.05c0-0.81-0.03-0.84-0.86-1.04c-0.01-0.15-0.02-0.31-0.04-0.55
	C61.67,10.58,62.46,10.5,63.33,10.42z"/>
<path class="st1" d="M44.21,10.45c2.23,0,3.59,1.73,3.02,3.83c-0.29,1.07-1.44,2-2.63,2.03c-0.58,0.02-1.19-0.03-1.73-0.22
	c-1.31-0.46-2.05-1.83-1.8-3.13c0.28-1.49,1.42-2.49,2.86-2.5C44.03,10.45,44.12,10.45,44.21,10.45z M42.84,13.34
	c0.08,0.54,0.12,1.03,0.23,1.51c0.13,0.53,0.5,0.85,1.05,0.91c0.49,0.05,1.01-0.3,1.17-0.84c0.31-1.03,0.32-2.07-0.01-3.09
	c-0.17-0.52-0.59-0.82-1.14-0.8c-0.52,0.02-0.91,0.32-1.04,0.84C42.98,12.35,42.92,12.86,42.84,13.34z"/>
<path class="st1" d="M57.27,7.58c0.98,0,1.92,0,2.89,0c0,0.18,0,0.34,0,0.51c-1.43,0.11-1.29-0.14-1.29,1.44
	c-0.01,2.38,0,4.76,0,7.15c0,0.9,0.07,0.97,0.97,0.98c0.09,0,0.18,0,0.34,0c0.01,0.17,0.02,0.34,0.03,0.54c-0.99,0-1.94,0-2.93,0
	C57.27,14.67,57.27,11.15,57.27,7.58z"/>
<path class="st1" d="M93.66,18.19c0-0.18,0-0.34,0-0.49c1.35-0.16,1.35-0.16,1.35-1.54c0-2.36,0-4.73,0-7.09
	c0-0.91-0.02-0.93-0.92-0.94c-0.11,0-0.22,0-0.36,0c-0.02-0.1-0.03-0.18-0.04-0.27c-0.01-0.09,0-0.17,0-0.27c0.98,0,1.91,0,2.87,0
	c0,3.54,0,7.06,0,10.6C95.58,18.19,94.63,18.19,93.66,18.19z"/>
<path class="st1" d="M93.23,10.69c0,0.17,0,0.32,0,0.46c-0.03,0.03-0.05,0.07-0.08,0.07c-0.47,0.08-0.72,0.38-0.91,0.79
	c-0.66,1.39-1.31,2.79-2.02,4.16c-0.32,0.61-0.72,1.2-1.18,1.72c-0.51,0.56-1.48,0.6-2.03,0.19c-0.36-0.27-0.52-0.63-0.38-1.07
	c0.12-0.36,0.4-0.5,0.78-0.47c0.43,0.03,0.62,0.28,0.66,0.68c0.02,0.16-0.02,0.32-0.05,0.64c0.3-0.19,0.53-0.28,0.69-0.45
	c0.23-0.24,0.4-0.52,0.6-0.79c0.29-0.39,0.31-0.74,0.05-1.2c-0.68-1.18-1.27-2.4-1.93-3.59c-0.16-0.29-0.46-0.5-0.7-0.74
	c-0.04,0.03-0.08,0.06-0.11,0.09c0-0.16,0-0.32,0-0.49c1.09,0,2.15,0,3.24,0c0,0.18,0,0.34,0,0.51c-0.11,0.01-0.2,0.02-0.29,0.03
	c-0.53,0.06-0.62,0.2-0.38,0.66c0.4,0.79,0.82,1.58,1.29,2.46c0.41-0.85,0.79-1.6,1.13-2.36c0.21-0.48,0.04-0.65-0.77-0.81
	c0-0.15,0-0.31,0-0.49C91.63,10.69,92.4,10.69,93.23,10.69z"/>
<path class="st1" d="M28.07,16.03c-0.18,0.1-0.44,0.24-0.81,0.44c-0.04-0.81-0.08-1.45-0.11-2.09c0.05-0.04,0.1-0.09,0.15-0.13
	c0.19,0.15,0.43,0.25,0.55,0.44c0.57,0.88,1.58,1.31,2.53,0.95c0.25-0.1,0.5-0.42,0.57-0.69c0.03-0.13-0.31-0.46-0.54-0.54
	c-0.53-0.19-1.1-0.26-1.65-0.41c-1.13-0.31-1.61-1-1.47-2.06c0.11-0.88,0.91-1.49,1.96-1.48c0.27,0,0.55,0.03,0.82,0.09
	c0.25,0.06,0.48,0.17,0.67,0.25c0.27-0.14,0.5-0.27,0.87-0.47c0,0.45-0.01,0.73,0,1.02c0.01,0.27,0.05,0.55-0.03,0.96
	c-0.21-0.13-0.47-0.22-0.61-0.4c-0.58-0.76-1.4-1.09-2.22-0.78c-0.21,0.08-0.48,0.36-0.49,0.56c-0.01,0.18,0.25,0.49,0.45,0.56
	c0.53,0.19,1.1,0.29,1.65,0.42c1.1,0.26,1.78,1.09,1.67,2.02c-0.12,0.97-0.97,1.67-2.1,1.63C29.31,16.29,28.7,16.13,28.07,16.03z"/>
<path class="st1" d="M82.37,11.34c-0.37,0-0.64,0-0.96,0c-0.01-0.19-0.02-0.36-0.04-0.58c1.34-0.17,1.85-1.08,2.01-2.26
	c0.05-0.02,0.09-0.04,0.12-0.04c0.13,0,0.25,0,0.42,0c0,0.73,0,1.45,0,2.19c0.6,0,1.17,0,1.77,0c0,0.25,0,0.46,0,0.69
	c-0.57,0-1.12,0-1.76,0c0,0.56,0,1.1,0,1.65c0,0.61,0,1.22,0,1.83c0,0.37,0.17,0.71,0.55,0.69c0.25-0.01,0.56-0.25,0.7-0.48
	c0.16-0.27,0.17-0.63,0.25-1c0.11-0.01,0.27-0.02,0.46-0.04c0.01,0.12,0.04,0.23,0.04,0.33c-0.03,1.24-0.8,2.02-1.99,2.01
	c-0.91-0.01-1.54-0.6-1.55-1.51C82.36,13.67,82.37,12.53,82.37,11.34z"/>
<path class="st1" d="M80.64,15.58c0,0.18,0,0.32,0,0.5c-1.08,0-2.14,0-3.25,0c-0.01-0.14-0.02-0.3-0.03-0.48
	c0.08-0.02,0.15-0.05,0.21-0.04c0.51,0.03,0.69-0.25,0.69-0.71c0-0.87,0-1.73,0-2.6c0-0.8-0.09-0.91-0.87-1.06c0-0.16,0-0.32,0-0.53
	c0.79-0.07,1.57-0.15,2.42-0.23c0,1.11,0,2.18,0,3.24c0,0.35,0,0.7,0,1.05C79.82,15.5,79.82,15.5,80.64,15.58z"/>
<path class="st1" d="M79.82,8.36c0.01,0.55-0.36,0.96-0.89,0.98c-0.59,0.02-1-0.34-1.02-0.91c-0.01-0.56,0.35-0.95,0.89-0.98
	C79.39,7.43,79.81,7.8,79.82,8.36z"/>
<path class="st2" d="M15.2,18.99c0.17,0.25,0.33,0.5,0.52,0.74c0.26,0.34,0.19,0.55-0.19,0.73c-0.17,0.08-0.31,0.21-0.45,0.33
	c-0.45,0.39-0.89,0.79-1.35,1.16c-0.09,0.07-0.28,0.02-0.42,0.03c-0.22-0.08-0.45-0.15-0.67-0.23c0,0,0,0,0,0
	c-0.04-0.04-0.08-0.08-0.11-0.12c0,0,0,0,0,0c-0.19-0.15-0.37-0.3-0.56-0.45l0,0c-0.04-0.06-0.08-0.11-0.11-0.17
	c-0.02-0.02-0.03-0.03-0.05-0.05c-0.06-0.04-0.11-0.08-0.17-0.11c0,0,0,0,0,0c-0.04-0.04-0.08-0.08-0.11-0.11c0,0,0,0,0,0
	c-0.04-0.04-0.08-0.08-0.11-0.11c0,0,0,0,0,0c-0.04-0.04-0.08-0.08-0.11-0.11c0,0,0,0,0,0c-0.05-0.04-0.11-0.08-0.16-0.12
	c-0.07,0-0.14,0-0.21-0.01c-0.04-0.17-0.03-0.37-0.12-0.51c-0.84-1.22-2.07-2.03-3.2-2.93c-0.79-0.63-1.6-1.24-2.39-1.86
	c-0.03-0.02-0.02-0.1-0.03-0.15c0.24-0.27,0.5-0.52,0.73-0.8c0.43-0.54,0.97-0.6,1.44-0.08c0.27,0.3,0.46,0.68,0.68,1.03
	c0.24,0.09,0.48,0.19,0.78,0.3c-0.02-0.31-0.02-0.45-0.04-0.75c0.28,0.17,0.5,0.25,0.64,0.4c0.55,0.57,1.14,0.91,1.95,0.6
	c0.05-0.02,0.11-0.01,0.17-0.01c1.14-0.05,2.27-0.09,3.41-0.13c0.14,0.05,0.29,0.1,0.43,0.15c-0.09,0.15-0.15,0.33-0.27,0.43
	c-0.25,0.21-0.54,0.38-0.81,0.56c0,0,0,0,0,0c-0.08,0.04-0.15,0.08-0.23,0.11c0,0,0.01-0.01,0.01-0.01c-0.49,0.52-0.49,0.99,0,1.34
	c0,0,0,0,0,0c0.09,0.08,0.19,0.16,0.28,0.24C14.64,18.55,14.92,18.77,15.2,18.99z"/>
<path class="st3" d="M16.38,8.98c0.01-0.08,0.03-0.15,0.04-0.23c0.19,0.31,0.37,0.62,0.57,0.92c0.5,0.73,1.1,0.76,1.65,0.07
	c0.09-0.11,0.19-0.22,0.29-0.33c0.02,0.08,0.04,0.15,0.06,0.23c-0.21,0.47-0.54,0.91-1.06,0.9c-0.68-0.01-1.09-0.53-1.39-1.09
	C16.45,9.3,16.43,9.13,16.38,8.98z"/>
<path class="st4" d="M13.3,3.47c-0.04,0.04-0.08,0.08-0.12,0.12c-0.63-0.53-1.25-1.05-1.88-1.58c0.04-0.07,0.07-0.14,0.11-0.21
	C12.04,2.36,12.67,2.91,13.3,3.47z"/>
<path class="st4" d="M20.96,12.78c-0.01-0.07-0.02-0.14-0.03-0.21c0.44-0.55,0.89-1.11,1.39-1.74
	C22.2,11.78,21.59,12.29,20.96,12.78z"/>
<path class="st4" d="M2.42,12.8c-0.06-0.01-0.12-0.02-0.19-0.02c0.51-0.59,1.03-1.18,1.54-1.77c0.04,0.04,0.08,0.08,0.13,0.12
	C3.41,11.68,2.91,12.24,2.42,12.8z"/>
<path class="st5" d="M14.95,15.52c0.11-0.14,0.21-0.28,0.32-0.42c0.48,0.65,0.36,1.04-0.41,1.35c-0.18,0.07-0.37,0.14-0.56,0.21
	c0.27-0.19,0.56-0.35,0.81-0.56c0.12-0.1,0.18-0.29,0.27-0.43C15.24,15.61,15.1,15.56,14.95,15.52z"/>
<path class="st5" d="M14.08,18.1c-0.49-0.35-0.49-0.82,0-1.34C14.01,17.21,13.73,17.65,14.08,18.1z"/>
<path class="st6" d="M12.64,21.75c0.22,0.08,0.45,0.15,0.67,0.23c-0.06,0.04-0.12,0.07-0.19,0.11
	C12.96,21.98,12.8,21.87,12.64,21.75z"/>
<path class="st6" d="M11.97,21.2c0.19,0.15,0.37,0.3,0.56,0.45C12.34,21.5,12.16,21.35,11.97,21.2z"/>
<path class="st5" d="M14.36,18.33c-0.09-0.08-0.19-0.16-0.28-0.24C14.17,18.17,14.26,18.25,14.36,18.33z"/>
<path class="st5" d="M14.08,16.77c0.08-0.04,0.15-0.08,0.23-0.11C14.23,16.69,14.15,16.73,14.08,16.77z"/>
<path class="st6" d="M11.15,20.42c0.05,0.04,0.11,0.08,0.16,0.12C11.26,20.5,11.2,20.46,11.15,20.42z"/>
<path class="st6" d="M11.31,20.54c0.04,0.04,0.08,0.08,0.11,0.11C11.38,20.61,11.35,20.57,11.31,20.54z"/>
<path class="st6" d="M11.53,20.76c0.04,0.04,0.08,0.08,0.11,0.11C11.6,20.83,11.57,20.79,11.53,20.76z"/>
<path class="st6" d="M11.64,20.87c0.06,0.04,0.11,0.08,0.17,0.11C11.75,20.94,11.7,20.91,11.64,20.87z"/>
<path class="st6" d="M11.86,21.03c0.04,0.06,0.08,0.11,0.11,0.17C11.94,21.15,11.9,21.09,11.86,21.03z"/>
<path class="st6" d="M12.53,21.64c0.04,0.04,0.08,0.08,0.11,0.12C12.6,21.72,12.56,21.68,12.53,21.64z"/>
<path class="st6" d="M11.42,20.64c0.04,0.04,0.08,0.08,0.11,0.11C11.49,20.72,11.46,20.68,11.42,20.64z"/>
<path class="st7" d="M2.42,12.8c0.49-0.56,0.99-1.12,1.48-1.68c1.36-0.84,2.25-2.14,3.2-3.37C7.75,6.92,8.36,6.05,9,5.2
	C9.08,5.08,9.2,5,9.31,4.91c0.25,0.22,0.48,0.46,0.74,0.66c0.67,0.51,0.67,1.19-0.03,1.66c-0.24,0.16-0.56,0.22-0.78,0.4
	c-0.17,0.15-0.3,0.41-0.32,0.63c-0.01,0.08,0.33,0.2,0.51,0.31C9.12,8.97,8.83,9.4,8.49,9.78c-0.26,0.29-0.3,0.58-0.27,0.96
	c0.08,0.82,0.08,1.64,0.13,2.47c0.03,0.51,0.1,1.02,0.17,1.53C8.56,15,8.57,15.2,8.21,15.1C8.09,14.85,8,14.59,7.86,14.35
	c-0.61-1.07-1.66-1.2-2.25-0.18c-0.15,0.25-0.36,0.46-0.54,0.7c-0.24,0.2-0.48,0.39-0.7,0.61c-0.27,0.26-0.42,0.19-0.58-0.12
	c-0.1-0.19-0.26-0.35-0.41-0.51C3.01,14.41,2.6,14,2.28,13.52C2.18,13.38,2.37,13.05,2.42,12.8z"/>
<path class="st7" d="M11.31,2.01c0.63,0.53,1.25,1.05,1.88,1.58c0.77,1.26,1.93,2.12,3.06,3c1,0.78,2.02,1.53,3.03,2.3
	c-0.13,0.19-0.24,0.35-0.35,0.52c-0.1,0.11-0.2,0.21-0.29,0.33c-0.55,0.68-1.14,0.66-1.65-0.07c-0.2-0.3-0.38-0.61-0.57-0.92
	c-0.23-0.03-0.45-0.06-0.72-0.1c0,0.22,0,0.37,0,0.57c-0.47-0.38-0.9-0.75-1.35-1.1c-0.14-0.1-0.32-0.21-0.48-0.2
	c-1.17,0.05-2.33,0.12-3.5,0.2C10.09,8.13,9.8,8.19,9.51,8.23c0,0,0,0,0,0C9.4,8.19,9.29,8.15,9.18,8.11c0.07-0.1,0.11-0.24,0.2-0.3
	C9.55,7.7,9.76,7.66,9.94,7.56c1.1-0.61,1.19-1.69,0.2-2.25C9.88,5.17,9.67,4.96,9.44,4.77C9.22,4.52,9.02,4.27,8.79,4.03
	C8.58,3.8,8.66,3.65,8.89,3.5c0.22-0.15,0.43-0.33,0.63-0.51c0.4-0.35,0.78-0.73,1.21-1.04C10.85,1.87,11.11,1.99,11.31,2.01z"/>
<path class="st4" d="M9.44,4.77c0.23,0.18,0.44,0.4,0.69,0.54c0.99,0.56,0.9,1.63-0.2,2.25C9.76,7.66,9.55,7.7,9.38,7.81
	c-0.09,0.06-0.14,0.2-0.2,0.3C9.29,8.15,9.4,8.19,9.51,8.23C9.48,8.34,9.45,8.45,9.42,8.57c0,0,0.01,0,0.01,0
	c-0.18-0.1-0.52-0.22-0.51-0.31c0.03-0.22,0.15-0.49,0.32-0.63c0.22-0.19,0.54-0.24,0.78-0.4c0.7-0.47,0.7-1.15,0.03-1.66
	c-0.26-0.2-0.5-0.44-0.74-0.66C9.35,4.86,9.39,4.82,9.44,4.77z"/>
<path class="st3" d="M5.08,14.87c0.18-0.23,0.39-0.44,0.54-0.7c0.59-1.02,1.63-0.89,2.25,0.18c0.14,0.24,0.23,0.5,0.34,0.75
	c-0.05,0-0.11,0.01-0.16,0.01c-0.22-0.35-0.41-0.73-0.68-1.03c-0.47-0.52-1.01-0.46-1.44,0.08c-0.22,0.28-0.48,0.53-0.73,0.8
	C5.16,14.93,5.12,14.9,5.08,14.87z"/>
<path class="st1" d="M14.17,13.26c0.4,0.2,0.7,0.53,0.49,0.96c-0.12,0.26-0.48,0.5-0.78,0.56c-0.42,0.08-0.7-0.28-0.82-0.87
	c-0.36,0-0.72,0-1.08,0c-0.28,0.84-0.43,0.99-1.04,0.91c-0.2-0.03-0.42-0.15-0.57-0.29c-0.23-0.23-0.24-1.52-0.08-1.83
	c0.06-0.11,0.09-0.27,0.06-0.4c-0.16-0.73-0.33-1.46-0.53-2.17c-0.03-0.12-0.25-0.22-0.41-0.28C9.27,9.81,9.09,9.83,8.93,9.82
	C8.9,9.76,8.87,9.71,8.84,9.66c0.24-0.17,0.47-0.47,0.72-0.49c0.52-0.03,0.78,0.38,0.9,0.85c1.42,0,2.8,0.01,4.18-0.01
	c0.72-0.01,0.79,0.32,0.68,0.92c-0.1,0.52-0.24,1.04-0.46,1.51c-0.12,0.26-0.44,0.43-0.68,0.64c-1.1,0-2.2,0-3.3,0
	c0,0.06-0.01,0.13-0.01,0.19c0.19,0.02,0.37,0.06,0.56,0.05C12.35,13.31,13.26,13.28,14.17,13.26z M10.64,10.68
	c0.12,0.53,0.2,1,0.35,1.45c0.04,0.13,0.29,0.28,0.45,0.28c0.83,0.02,1.66,0.02,2.48-0.01c0.13,0,0.33-0.15,0.37-0.27
	c0.15-0.46,0.25-0.95,0.37-1.44C13.32,10.68,12.02,10.68,10.64,10.68z M11.51,14.1c-0.24-0.19-0.37-0.38-0.52-0.39
	c-0.11-0.01-0.24,0.22-0.36,0.34c0.14,0.12,0.26,0.28,0.41,0.34C11.13,14.41,11.28,14.25,11.51,14.1z"/>
<path class="st7" d="M9.42,8.57c0.03-0.11,0.06-0.23,0.09-0.34c0,0,0,0,0,0C9.48,8.34,9.45,8.45,9.42,8.57z"/>
</svg>
