<?xml version="1.0" encoding="utf-8"?>
<!-- Generator: Adobe Illustrator 23.0.5, SVG Export Plug-In . SVG Version: 6.00 Build 0)  -->
<svg version="1.1" id="Layer_1" xmlns="http://www.w3.org/2000/svg" xmlns:xlink="http://www.w3.org/1999/xlink" x="0px" y="0px"
	 viewBox="0 0 105 24" style="enable-background:new 0 0 105 24;" xml:space="preserve">
<style type="text/css">
	.st0{fill:#38A4DA;}
	.st1{fill:#111111;}
	.st2{fill:#0F0F0F;}
	.st3{fill:#121212;}
	.st4{fill:#131313;}
	.st5{fill:#0D0D0D;}
	.st6{fill:#101010;}
	.st7{fill:#39A4DA;}
	.st8{fill:#D5EFF8;}
	.st9{fill:#D9F1F9;}
	.st10{fill:#B7DFF2;}
	.st11{fill:#9ED3ED;}
	.st12{fill:#FBFBFB;}
	.st13{fill:#3AA4DB;}
	.st14{fill:#141414;}
	.st15{fill:#D2D2D2;}
</style>
<path class="st0" d="M29.44,12.05c0,3.2,0,6.39,0,9.59c0,1.06-0.62,1.68-1.69,1.68c-6.43,0-12.86,0-19.29,0
	c-1.03,0-1.66-0.62-1.66-1.65c0-6.45,0-12.89,0-19.34c0-1.03,0.63-1.65,1.67-1.65c6.45,0,12.89,0,19.34,0c1,0,1.64,0.63,1.64,1.63
	C29.44,5.55,29.44,8.8,29.44,12.05z M17.7,20.28C17.7,20.28,17.69,20.28,17.7,20.28c0.03,0.03,0.07,0.07,0.1,0.1l0,0
	c0.05,0.04,0.11,0.07,0.16,0.11c0.02,0.02,0.03,0.03,0.05,0.05c0.04,0.05,0.07,0.11,0.11,0.16l0,0c0.18,0.14,0.35,0.28,0.53,0.42
	c0,0,0,0,0,0c0.04,0.04,0.07,0.07,0.11,0.11l0,0c0.15,0.11,0.3,0.21,0.46,0.32c-0.1,0.44,0.25,0.19,0.35,0.19
	c2.63,0.02,5.26,0.01,7.9,0.01c0.13,0,0.26-0.02,0.42-0.04c0-2.25-0.01-4.46,0.01-6.67c0-0.38-0.13-0.61-0.41-0.83
	c-0.42-0.32-0.82-0.68-1.25-1.04c0.16-0.18,0.28-0.3,0.39-0.43c0.59-0.47,1.17-0.95,1.29-1.84c-0.48,0.6-0.9,1.12-1.32,1.64
	c-0.56,0.46-1.22,0.84-1.67,1.39c-1.15,1.39-2.2,2.85-3.3,4.28c-0.12,0.16-0.29,0.27-0.44,0.4c-0.27-0.21-0.53-0.41-0.8-0.62
	c-0.09-0.08-0.18-0.15-0.26-0.23l0,0c-0.33-0.42-0.07-0.84,0-1.26l-0.01,0.01c0.07-0.04,0.14-0.07,0.22-0.11c0,0,0,0,0,0
	c0.18-0.07,0.35-0.13,0.53-0.2c0.73-0.29,0.84-0.66,0.39-1.27c0.3-0.35,0.62-0.7,0.91-1.07c0.09-0.12,0.18-0.33,0.15-0.46
	c-0.22-0.86-0.26-1.72-0.2-2.61c0.04-0.58-0.09-1.18-0.14-1.78c0.12,0.04,0.23,0.09,0.34,0.13c0.05,0.15,0.07,0.31,0.14,0.44
	c0.29,0.54,0.68,1.02,1.32,1.03c0.49,0.01,0.8-0.4,1-0.85c0.39-0.37,0.77-0.75,1.16-1.12c0.24-0.22,0.38-0.12,0.49,0.17
	c0.06,0.17,0.21,0.31,0.34,0.45c0.14,0.17,0.3,0.32,0.45,0.49c0.2,0.23,0.4,0.47,0.66,0.78c0-2.84,0-5.54,0-8.23
	c-0.06-0.02-0.09-0.05-0.12-0.05c-2.11,0-4.22-0.01-6.33,0c-0.16,0-0.35,0.13-0.46,0.25c-0.38,0.43-0.72,0.9-1.11,1.32
	c-0.08,0.09-0.29,0.07-0.44,0.09c-0.59-0.52-1.19-1.05-1.78-1.57c-0.14-0.03-0.28-0.1-0.42-0.1c-2.81-0.01-5.62-0.01-8.43,0
	c-0.12,0-0.23,0.03-0.37,0.05c0,2.17-0.01,4.32,0.01,6.46c0,0.17,0.16,0.37,0.3,0.5c0.51,0.45,1.04,0.87,1.57,1.3
	c0.17,0.14,0.34,0.27,0.11,0.5c-0.48,0.56-0.97,1.12-1.45,1.68c-0.17-0.03-0.34-0.07-0.51-0.1c0,3.02,0,6.04,0,9.11
	c0.2,0,0.37,0,0.54,0c2.02,0,4.05-0.01,6.07,0.01c0.48,0.01,0.8-0.11,1.07-0.53c0.29-0.46,0.7-0.85,1.06-1.27
	c0.06,0,0.13,0,0.19,0.01c0.05,0.04,0.1,0.07,0.15,0.11l0,0c0.04,0.04,0.07,0.07,0.11,0.11l0,0C17.62,20.21,17.66,20.25,17.7,20.28z
	"/>
<path class="st1" d="M54.9,15.15c0,0.7-0.02,1.28,0.01,1.87c0.02,0.54,0.53,0.31,0.82,0.47c0,0.14,0,0.29,0,0.46
	c-1.03,0-2.06,0-3.1,0c0-0.16,0-0.31,0-0.5c0.64,0.08,0.73-0.29,0.72-0.82c-0.03-1.52-0.03-3.04,0-4.55
	c0.01-0.52-0.13-0.81-0.71-0.79c0-0.18,0-0.34,0-0.56c0.68-0.07,1.37-0.14,2.09-0.21c0.06,0.31,0.11,0.58,0.17,0.92
	c0.53-0.52,1.06-0.9,1.78-0.9c1.2,0,1.93,0.52,2.23,1.7c0.21,0.82,0.21,1.66-0.11,2.46c-0.62,1.56-2.5,1.93-3.66,0.72
	C55.08,15.35,55.03,15.29,54.9,15.15z M54.76,13.25c0.04,0.01,0.08,0.03,0.13,0.04c-0.02,0.62,0.06,1.22,0.52,1.69
	c0.52,0.54,1.21,0.47,1.55-0.2c0.48-0.95,0.5-1.95,0.04-2.91c-0.36-0.75-1.22-0.84-1.67-0.15C55.04,12.17,54.94,12.74,54.76,13.25z"
	/>
<path class="st2" d="M37.96,15.38c0.9-0.06,0.91-0.07,0.91-0.97c0-1.69,0-3.39,0-5.08c0-0.87-0.07-0.95-0.95-1.02
	c0-0.15,0-0.3,0-0.52c0.78-0.07,1.57-0.14,2.4-0.22c0,1.35,0,2.65,0,4.06c0.22-0.21,0.38-0.36,0.53-0.51
	c0.54-0.53,1.2-0.68,1.93-0.58c0.69,0.09,1.21,0.77,1.23,1.6c0.02,0.8,0,1.61,0.01,2.41c0,0.7,0.06,0.76,0.8,0.81
	c0.01,0.15,0.02,0.3,0.04,0.48c-1.04,0-2.07,0-3.12,0c0-0.14,0-0.29,0-0.47c0.05-0.01,0.11-0.03,0.17-0.03
	c0.46,0.02,0.67-0.18,0.65-0.66c-0.03-0.7,0-1.4-0.01-2.1c-0.01-0.59-0.24-0.94-0.72-1.07c-0.43-0.12-0.95,0.07-1.19,0.54
	c-0.16,0.31-0.24,0.68-0.28,1.04c-0.05,0.47-0.01,0.94-0.01,1.41c0,0.73,0.06,0.8,0.81,0.85c0.01,0.15,0.02,0.3,0.03,0.48
	c-1.08,0-2.13,0-3.22,0C37.96,15.71,37.96,15.56,37.96,15.38z"/>
<path class="st3" d="M79.08,15.4c0,0.14,0,0.29,0,0.46c-1.03,0-2.04,0-3.08,0c0-0.16,0-0.32,0-0.48c0.74-0.08,0.81-0.16,0.8-0.92
	c0-0.68-0.01-1.36-0.04-2.04c-0.02-0.49-0.27-0.85-0.76-0.92c-0.49-0.07-0.91,0.14-1.14,0.57c-0.14,0.25-0.21,0.55-0.23,0.84
	c-0.04,0.54-0.02,1.08-0.02,1.62c0,0.74,0.04,0.78,0.82,0.84c0.01,0.15,0.02,0.3,0.03,0.48c-1.08,0-2.14,0-3.24,0
	c-0.01-0.14-0.01-0.29-0.02-0.44c0.06-0.02,0.1-0.05,0.15-0.06c0.68-0.04,0.74-0.1,0.74-0.78c0-0.8,0-1.61,0-2.41
	c0-0.75-0.07-0.82-0.85-0.92c-0.01-0.15-0.01-0.3-0.02-0.52c0.72-0.08,1.42-0.15,2.19-0.23c0.07,0.38,0.13,0.72,0.23,1.24
	c0.23-0.28,0.35-0.49,0.53-0.65c0.62-0.55,1.34-0.76,2.12-0.45c0.79,0.31,0.98,1.03,1,1.8c0.02,0.66,0,1.33,0,1.99
	C78.28,15.27,78.28,15.27,79.08,15.4z"/>
<path class="st2" d="M66.68,10.5c0,1.14,0,2.2,0,3.27c0,0.89,0.24,1.28,0.83,1.36c0.58,0.07,1.15-0.36,1.26-1.14
	c0.11-0.74,0.11-1.5,0.04-2.24c-0.02-0.23-0.44-0.41-0.68-0.62c-0.04,0.04-0.08,0.07-0.12,0.11c0-0.15,0-0.3,0-0.52
	c0.75-0.07,1.5-0.14,2.31-0.22c0,1.32,0,2.59,0,3.86c0,0.79,0.07,0.88,0.84,1.03c0,0.15,0,0.3,0,0.49c-0.63,0-1.24,0.02-1.85-0.01
	c-0.12-0.01-0.28-0.18-0.35-0.32c-0.08-0.15-0.07-0.33-0.11-0.56c-0.24,0.23-0.43,0.43-0.64,0.6c-0.63,0.51-1.35,0.69-2.1,0.36
	c-0.75-0.33-0.93-1.03-0.94-1.78c-0.01-0.65,0-1.29,0-1.94c0-0.77-0.02-0.8-0.81-0.99c-0.01-0.14-0.02-0.29-0.04-0.52
	C65.1,10.66,65.85,10.58,66.68,10.5z"/>
<path class="st1" d="M48.6,10.53c2.11,0,3.39,1.64,2.85,3.62c-0.27,1.01-1.36,1.89-2.48,1.92c-0.55,0.01-1.13-0.03-1.64-0.21
	c-1.24-0.44-1.94-1.73-1.7-2.96c0.27-1.41,1.35-2.35,2.71-2.37C48.42,10.53,48.51,10.53,48.6,10.53z M47.3,13.27
	c0.08,0.51,0.11,0.98,0.22,1.43c0.12,0.5,0.47,0.81,1,0.86c0.46,0.05,0.95-0.28,1.11-0.8c0.3-0.97,0.3-1.96-0.01-2.93
	c-0.16-0.49-0.56-0.77-1.08-0.75c-0.49,0.02-0.86,0.3-0.98,0.79C47.44,12.33,47.38,12.82,47.3,13.27z"/>
<path class="st4" d="M60.95,7.82c0.92,0,1.81,0,2.73,0c0,0.17,0,0.33,0,0.48c-1.35,0.11-1.22-0.13-1.22,1.36
	c-0.01,2.25,0,4.5,0,6.76c0,0.85,0.06,0.92,0.92,0.92c0.09,0,0.17,0,0.32,0c0.01,0.16,0.02,0.32,0.02,0.51c-0.94,0-1.84,0-2.77,0
	C60.95,14.52,60.95,11.2,60.95,7.82z"/>
<path class="st5" d="M95.36,17.85c0-0.17,0-0.32,0-0.46c1.28-0.15,1.28-0.15,1.28-1.46c0-2.23,0-4.47,0-6.7
	c0-0.86-0.02-0.88-0.87-0.89c-0.1,0-0.21,0-0.34,0c-0.01-0.09-0.03-0.17-0.04-0.25c-0.01-0.08,0-0.16,0-0.26c0.93,0,1.81,0,2.71,0
	c0,3.35,0,6.67,0,10.02C97.17,17.85,96.28,17.85,95.36,17.85z"/>
<path class="st3" d="M94.95,10.76c0,0.16,0,0.3,0,0.44c-0.03,0.03-0.05,0.06-0.08,0.07c-0.44,0.08-0.68,0.36-0.86,0.75
	c-0.62,1.32-1.24,2.64-1.91,3.93c-0.3,0.58-0.68,1.14-1.11,1.62c-0.48,0.53-1.4,0.57-1.92,0.18c-0.34-0.25-0.5-0.59-0.36-1.01
	c0.11-0.34,0.38-0.48,0.74-0.45c0.4,0.03,0.59,0.27,0.62,0.64c0.02,0.15-0.02,0.3-0.05,0.6c0.28-0.18,0.5-0.27,0.66-0.42
	c0.22-0.22,0.38-0.49,0.57-0.75c0.27-0.37,0.29-0.7,0.04-1.13c-0.64-1.11-1.2-2.27-1.82-3.4c-0.15-0.27-0.44-0.47-0.66-0.7
	c-0.04,0.03-0.07,0.06-0.11,0.09c0-0.15,0-0.3,0-0.46c1.03,0,2.03,0,3.06,0c0,0.17,0,0.32,0,0.49c-0.1,0.01-0.19,0.02-0.27,0.03
	c-0.5,0.06-0.58,0.18-0.36,0.62c0.38,0.75,0.78,1.49,1.22,2.32c0.39-0.81,0.75-1.51,1.07-2.23c0.2-0.45,0.03-0.62-0.73-0.77
	c0-0.15,0-0.3,0-0.47C93.43,10.76,94.16,10.76,94.95,10.76z"/>
<path class="st4" d="M33.46,15.74c-0.3,0.16-0.55,0.3-0.9,0.49c-0.04-0.77-0.07-1.37-0.11-1.97c0.05-0.04,0.09-0.08,0.14-0.13
	c0.18,0.14,0.41,0.24,0.52,0.42c0.54,0.83,1.5,1.23,2.39,0.9c0.24-0.09,0.47-0.4,0.54-0.65c0.03-0.12-0.3-0.44-0.51-0.51
	c-0.5-0.18-1.04-0.25-1.56-0.39c-1.06-0.29-1.52-0.94-1.39-1.95c0.11-0.83,0.86-1.41,1.86-1.4c0.26,0,0.52,0.03,0.77,0.09
	c0.23,0.05,0.45,0.16,0.63,0.23c0.25-0.14,0.48-0.26,0.78-0.42c0.04,0.65,0.07,1.18,0.12,1.91c-0.29-0.18-0.55-0.26-0.68-0.44
	c-0.55-0.72-1.33-1.03-2.1-0.73c-0.2,0.08-0.45,0.34-0.46,0.53c-0.01,0.17,0.23,0.46,0.43,0.53c0.5,0.18,1.04,0.27,1.56,0.39
	c1.04,0.25,1.69,1.03,1.58,1.91c-0.11,0.92-0.92,1.55-1.99,1.55c-0.29,0-0.59-0.01-0.88-0.08C33.92,15.95,33.65,15.81,33.46,15.74z"
	/>
<path class="st2" d="M84.68,11.38c-0.35,0-0.61,0-0.91,0c-0.01-0.18-0.02-0.34-0.04-0.55c1.25-0.18,1.76-1.01,1.89-2.17
	c0.17,0,0.33,0,0.52,0c0,0.68,0,1.35,0,2.06c0.57,0,1.11,0,1.67,0c0,0.23,0,0.43,0,0.65c-0.54,0-1.06,0-1.66,0c0,0.53,0,1.04,0,1.56
	c0,0.58,0,1.15,0,1.73c0,0.35,0.16,0.68,0.52,0.66c0.23-0.01,0.53-0.24,0.66-0.46c0.15-0.25,0.16-0.59,0.24-0.94
	c0.1-0.01,0.25-0.02,0.43-0.04c0.01,0.12,0.04,0.21,0.03,0.31c-0.03,1.18-0.76,1.91-1.89,1.9c-0.86-0.01-1.45-0.57-1.47-1.43
	C84.67,13.58,84.68,12.51,84.68,11.38z"/>
<path class="st6" d="M83.05,15.38c0,0.17,0,0.31,0,0.47c-1.02,0-2.02,0-3.07,0c-0.01-0.13-0.02-0.28-0.03-0.46
	c0.08-0.02,0.14-0.04,0.2-0.04c0.48,0.02,0.65-0.23,0.65-0.67c0-0.82,0-1.64,0-2.46c0-0.76-0.08-0.86-0.82-1c0-0.15,0-0.3,0-0.5
	c0.75-0.07,1.49-0.14,2.29-0.21c0,1.05,0,2.06,0,3.06c0,0.33,0,0.66,0,0.99C82.27,15.31,82.27,15.31,83.05,15.38z"/>
<path class="st3" d="M82.27,8.56c0.01,0.52-0.34,0.9-0.85,0.92c-0.56,0.02-0.95-0.33-0.96-0.86c-0.01-0.53,0.33-0.9,0.85-0.92
	C81.87,7.68,82.26,8.03,82.27,8.56z"/>
<path class="st7" d="M21.16,18.61c0.16,0.23,0.31,0.48,0.49,0.7c0.25,0.32,0.18,0.52-0.18,0.69c-0.16,0.07-0.29,0.2-0.43,0.32
	c-0.43,0.37-0.84,0.75-1.28,1.1c-0.09,0.07-0.26,0.02-0.4,0.03c-0.21-0.07-0.42-0.15-0.63-0.22c0,0,0,0,0,0
	c-0.04-0.04-0.07-0.07-0.11-0.11c0,0,0,0,0,0c-0.18-0.14-0.35-0.28-0.53-0.42l0,0c-0.04-0.05-0.07-0.11-0.11-0.16
	c-0.02-0.02-0.03-0.03-0.05-0.05c-0.05-0.04-0.11-0.07-0.16-0.11c0,0,0,0,0,0c-0.04-0.04-0.07-0.07-0.11-0.11c0,0,0,0,0,0
	c-0.04-0.04-0.07-0.07-0.11-0.11c0,0,0,0,0,0c-0.04-0.04-0.07-0.07-0.11-0.11c0,0,0,0,0,0c-0.05-0.04-0.1-0.07-0.15-0.11
	c-0.06,0-0.13,0-0.19-0.01c-0.03-0.16-0.02-0.35-0.11-0.48c-0.8-1.15-1.95-1.92-3.03-2.77c-0.75-0.59-1.51-1.17-2.26-1.76
	c-0.03-0.02-0.02-0.09-0.03-0.14c0.23-0.25,0.47-0.49,0.69-0.76c0.41-0.51,0.92-0.57,1.36-0.08c0.26,0.29,0.43,0.65,0.64,0.97
	c0.22,0.09,0.45,0.18,0.73,0.29c-0.01-0.29-0.02-0.43-0.04-0.71c0.27,0.16,0.47,0.24,0.61,0.38c0.52,0.54,1.08,0.86,1.85,0.56
	c0.05-0.02,0.1-0.01,0.16-0.01c1.07-0.04,2.15-0.09,3.22-0.13c0.13,0.05,0.27,0.09,0.4,0.14c-0.08,0.14-0.14,0.31-0.26,0.41
	c-0.24,0.2-0.51,0.36-0.76,0.53c0,0,0,0,0,0c-0.07,0.04-0.14,0.07-0.22,0.11c0,0,0.01-0.01,0.01-0.01c-0.46,0.49-0.46,0.93,0,1.26
	c0,0,0,0,0,0c0.09,0.08,0.18,0.15,0.26,0.23C20.63,18.2,20.9,18.4,21.16,18.61z"/>
<path class="st8" d="M22.28,9.14c0.01-0.07,0.03-0.15,0.04-0.22c0.18,0.29,0.35,0.59,0.54,0.87c0.47,0.69,1.04,0.72,1.56,0.07
	c0.09-0.11,0.18-0.21,0.27-0.31c0.02,0.07,0.04,0.15,0.05,0.22c-0.2,0.45-0.51,0.86-1,0.85c-0.64-0.01-1.03-0.5-1.32-1.03
	C22.35,9.45,22.33,9.29,22.28,9.14z"/>
<path class="st9" d="M19.37,3.93c-0.04,0.04-0.07,0.08-0.11,0.12c-0.59-0.5-1.18-0.99-1.77-1.49c0.03-0.07,0.07-0.13,0.1-0.2
	C18.18,2.88,18.77,3.4,19.37,3.93z"/>
<path class="st9" d="M26.61,12.74c-0.01-0.07-0.02-0.13-0.03-0.2c0.42-0.52,0.84-1.05,1.32-1.64C27.78,11.79,27.2,12.27,26.61,12.74
	z"/>
<path class="st9" d="M9.08,12.76c-0.06-0.01-0.12-0.01-0.17-0.02c0.48-0.56,0.97-1.12,1.45-1.68c0.04,0.04,0.08,0.07,0.12,0.11
	C10.01,11.7,9.55,12.23,9.08,12.76z"/>
<path class="st10" d="M20.93,15.32c0.1-0.13,0.2-0.26,0.3-0.4c0.45,0.62,0.34,0.99-0.39,1.27c-0.17,0.07-0.35,0.13-0.53,0.2
	c0.26-0.18,0.53-0.33,0.76-0.53c0.12-0.1,0.17-0.27,0.26-0.41C21.2,15.42,21.07,15.37,20.93,15.32z"/>
<path class="st10" d="M20.11,17.77c-0.47-0.33-0.47-0.78,0-1.26C20.04,16.93,19.78,17.35,20.11,17.77z"/>
<path class="st11" d="M18.74,21.22c0.21,0.07,0.42,0.15,0.63,0.22c-0.06,0.03-0.12,0.07-0.18,0.1
	C19.04,21.44,18.89,21.33,18.74,21.22z"/>
<path class="st11" d="M18.11,20.7c0.18,0.14,0.35,0.28,0.53,0.42C18.46,20.98,18.29,20.84,18.11,20.7z"/>
<path class="st10" d="M20.37,17.99c-0.09-0.08-0.18-0.15-0.26-0.23C20.19,17.84,20.28,17.91,20.37,17.99z"/>
<path class="st10" d="M20.1,16.51c0.07-0.04,0.14-0.07,0.22-0.11C20.25,16.44,20.17,16.47,20.1,16.51z"/>
<path class="st11" d="M17.34,19.96c0.05,0.04,0.1,0.07,0.15,0.11C17.44,20.04,17.39,20,17.34,19.96z"/>
<path class="st11" d="M17.48,20.07c0.04,0.04,0.07,0.07,0.11,0.11C17.55,20.14,17.52,20.11,17.48,20.07z"/>
<path class="st11" d="M17.69,20.28c0.04,0.04,0.07,0.07,0.11,0.11C17.76,20.35,17.73,20.32,17.69,20.28z"/>
<path class="st11" d="M17.8,20.38c0.05,0.04,0.11,0.07,0.16,0.11C17.9,20.46,17.85,20.42,17.8,20.38z"/>
<path class="st11" d="M18.01,20.54c0.04,0.05,0.07,0.11,0.11,0.16C18.08,20.65,18.04,20.59,18.01,20.54z"/>
<path class="st11" d="M18.64,21.12c0.04,0.04,0.07,0.07,0.11,0.11C18.71,21.19,18.67,21.15,18.64,21.12z"/>
<path class="st11" d="M17.59,20.17c0.04,0.04,0.07,0.07,0.11,0.11C17.66,20.25,17.62,20.21,17.59,20.17z"/>
<path class="st12" d="M54.76,13.25c0.18-0.51,0.28-1.08,0.56-1.51c0.45-0.69,1.32-0.6,1.67,0.15c0.46,0.96,0.44,1.96-0.04,2.91
	c-0.34,0.67-1.02,0.73-1.55,0.2c-0.46-0.47-0.53-1.07-0.52-1.69C54.85,13.28,54.81,13.26,54.76,13.25z"/>
<path class="st12" d="M47.3,13.27c0.08-0.45,0.14-0.93,0.26-1.4c0.12-0.49,0.49-0.77,0.98-0.79c0.52-0.02,0.92,0.26,1.08,0.75
	c0.31,0.97,0.31,1.96,0.01,2.93c-0.16,0.51-0.65,0.84-1.11,0.8c-0.52-0.05-0.88-0.36-1-0.86C47.41,14.24,47.38,13.77,47.3,13.27z"/>
<path class="st13" d="M9.08,12.76c0.47-0.53,0.93-1.06,1.4-1.59c1.29-0.79,2.13-2.02,3.03-3.18c0.62-0.79,1.19-1.62,1.8-2.42
	c0.08-0.11,0.19-0.18,0.29-0.27c0.23,0.21,0.45,0.43,0.7,0.62c0.63,0.48,0.63,1.13-0.03,1.57c-0.23,0.15-0.53,0.21-0.74,0.38
	c-0.16,0.14-0.28,0.39-0.3,0.6c-0.01,0.08,0.31,0.19,0.48,0.29c-0.29,0.39-0.57,0.79-0.89,1.15c-0.25,0.28-0.29,0.55-0.25,0.91
	c0.07,0.77,0.07,1.55,0.13,2.33c0.03,0.49,0.1,0.97,0.16,1.45c0.03,0.24,0.04,0.44-0.3,0.34c-0.11-0.24-0.2-0.48-0.32-0.71
	c-0.58-1.01-1.57-1.14-2.12-0.17c-0.14,0.24-0.34,0.44-0.51,0.66c-0.22,0.19-0.46,0.37-0.67,0.58c-0.25,0.25-0.4,0.18-0.55-0.11
	C10.29,15,10.13,14.85,10,14.69c-0.36-0.41-0.75-0.8-1.05-1.25C8.86,13.3,9.03,12.99,9.08,12.76z"/>
<path class="st13" d="M17.49,2.56c0.59,0.5,1.18,0.99,1.77,1.49c0.72,1.19,1.82,2,2.89,2.84c0.94,0.74,1.91,1.45,2.87,2.18
	c-0.12,0.18-0.22,0.33-0.33,0.49c-0.09,0.1-0.19,0.2-0.27,0.31c-0.52,0.65-1.08,0.62-1.56-0.07c-0.19-0.28-0.36-0.58-0.54-0.87
	c-0.21-0.03-0.43-0.06-0.68-0.1c0,0.21,0,0.35,0,0.54C21.2,9,20.79,8.65,20.37,8.32c-0.13-0.1-0.31-0.2-0.46-0.19
	c-1.1,0.05-2.2,0.11-3.31,0.19c-0.28,0.02-0.55,0.08-0.82,0.11c0,0,0,0,0,0c-0.1-0.04-0.21-0.07-0.31-0.11
	c0.06-0.1,0.1-0.23,0.19-0.28c0.16-0.1,0.36-0.14,0.52-0.23c1.04-0.58,1.13-1.6,0.19-2.12c-0.24-0.13-0.44-0.34-0.66-0.51
	c-0.2-0.24-0.4-0.48-0.61-0.71c-0.2-0.22-0.12-0.35,0.09-0.5c0.21-0.14,0.4-0.31,0.6-0.48c0.38-0.33,0.74-0.69,1.15-0.98
	C17.05,2.42,17.3,2.53,17.49,2.56z"/>
<path class="st9" d="M15.72,5.17c0.22,0.17,0.42,0.38,0.66,0.51c0.94,0.53,0.85,1.54-0.19,2.12c-0.17,0.09-0.36,0.13-0.52,0.23
	c-0.09,0.06-0.13,0.19-0.19,0.28c0.1,0.04,0.21,0.07,0.31,0.11c-0.03,0.11-0.06,0.22-0.08,0.32c0,0,0,0,0,0
	c-0.17-0.1-0.49-0.21-0.48-0.29c0.02-0.21,0.14-0.46,0.3-0.6c0.2-0.18,0.51-0.23,0.74-0.38c0.67-0.44,0.67-1.09,0.03-1.57
	c-0.25-0.19-0.47-0.41-0.7-0.62C15.63,5.25,15.67,5.21,15.72,5.17z"/>
<path class="st8" d="M11.59,14.71c0.17-0.22,0.37-0.42,0.51-0.66c0.56-0.97,1.55-0.84,2.12,0.17c0.13,0.22,0.22,0.47,0.32,0.71
	c-0.05,0-0.1,0.01-0.15,0.01c-0.21-0.33-0.39-0.69-0.64-0.97c-0.44-0.49-0.95-0.43-1.36,0.08c-0.21,0.27-0.46,0.5-0.69,0.76
	C11.67,14.77,11.63,14.74,11.59,14.71z"/>
<path class="st14" d="M20.19,13.19c0.38,0.19,0.66,0.51,0.47,0.91c-0.12,0.25-0.46,0.48-0.73,0.53c-0.39,0.08-0.67-0.26-0.78-0.82
	c-0.34,0-0.68,0-1.02,0c-0.27,0.8-0.41,0.94-0.99,0.86c-0.19-0.03-0.4-0.14-0.54-0.27c-0.22-0.21-0.22-1.44-0.07-1.73
	c0.06-0.11,0.08-0.26,0.06-0.38c-0.15-0.69-0.31-1.38-0.5-2.05c-0.03-0.12-0.24-0.21-0.38-0.26c-0.14-0.05-0.3-0.03-0.45-0.04
	c-0.03-0.05-0.06-0.1-0.08-0.15c0.23-0.16,0.45-0.45,0.68-0.46c0.49-0.03,0.73,0.36,0.85,0.8c1.34,0,2.65,0.01,3.95-0.01
	c0.68-0.01,0.75,0.31,0.64,0.87c-0.09,0.49-0.23,0.98-0.44,1.43c-0.12,0.25-0.42,0.41-0.64,0.61c-1.04,0-2.08,0-3.12,0
	c0,0.06-0.01,0.12-0.01,0.18c0.18,0.02,0.35,0.05,0.53,0.05C18.47,13.24,19.33,13.21,20.19,13.19z M16.85,10.76
	c0.11,0.5,0.19,0.95,0.33,1.37c0.04,0.13,0.27,0.26,0.42,0.26c0.78,0.02,1.57,0.02,2.35-0.01c0.12,0,0.31-0.14,0.35-0.26
	c0.14-0.44,0.23-0.89,0.35-1.36C19.38,10.76,18.15,10.76,16.85,10.76z M17.67,13.98c-0.22-0.18-0.35-0.36-0.49-0.37
	c-0.11-0.01-0.23,0.2-0.34,0.32c0.13,0.11,0.24,0.27,0.39,0.32C17.32,14.28,17.46,14.12,17.67,13.98z"/>
<path class="st15" d="M20.19,13.19c-0.86,0.02-1.72,0.05-2.58,0.07c-0.17,0-0.35-0.03-0.53-0.05c0-0.06,0.01-0.12,0.01-0.18
	c1.04,0,2.08,0,3.12,0C20.2,13.08,20.19,13.14,20.19,13.19z"/>
<path class="st13" d="M15.7,8.75c0.03-0.11,0.05-0.22,0.08-0.32c0,0,0,0,0,0C15.75,8.54,15.73,8.65,15.7,8.75z"/>
</svg>
